<?xml version="1.0"?>
<svg width="215" height="64" xmlns="http://www.w3.org/2000/svg" xmlns:svg="http://www.w3.org/2000/svg">
 <g class="layer">
  <title>Layer 1</title>
  <g id="DarkLogo">
   <path d="m184.59,57.2l7.66,0l0,6.37l-7.66,0l0,-6.37z" fill="#F1F1F1" id="Vector"/>
   <path d="m160.99,63.57l-8.29,0l11.27,-29.75l8.51,0l11.27,29.75l-8.3,0l-1.91,-5.31l-10.63,0l-1.92,5.31zm3.83,-10.83l6.81,0l-3.41,-9.99l-3.4,9.99z" fill="#F1F1F1" id="Vector_2"/>
   <path d="m148.67,33.4c0.71,0 1.98,0.14 3.83,0.42l0,5.74l-1.71,0c-0.42,0 -0.8,0.14 -1.14,0.42c-0.34,0.26 -0.6,0.54 -0.77,0.85l-4.04,7.66l8.29,15.08l-8.08,0l-6.59,-12.11l-3.83,0l0,12.11l-7.65,0l0,-29.75l7.65,0l0,11.69l3.83,0l4.26,-8.08c0.62,-1.19 1.38,-2.15 2.29,-2.89c0.94,-0.76 2.16,-1.14 3.66,-1.14z" fill="#F1F1F1" id="Vector_3"/>
   <path d="m114.22,53.8c-3.4,0.28 -6.62,0.42 -9.65,0.42c-3.01,0 -5.16,-0.65 -6.47,-1.95c-1.3,-1.3 -1.95,-3.35 -1.95,-6.12l0,-12.33l7.65,0l0,12.33c0,0.65 0.18,1.17 0.55,1.57c0.4,0.37 0.93,0.55 1.58,0.55c2.32,0 5.09,-0.14 8.29,-0.42l0,-14.03l7.65,0l0,29.75l-7.65,0l0,-9.77z" fill="#F1F1F1" id="Vector_4"/>
   <path d="m87.2,41.9c0,-1.7 -0.86,-2.55 -2.56,-2.55l-7.23,0c-1.7,0 -2.55,0.85 -2.55,2.55l0,13.6c0,1.7 0.85,2.55 2.55,2.55l7.23,0c1.7,0 2.56,-0.85 2.56,-2.55l0,-13.6zm7.65,13.6c0,2.97 -0.68,5.14 -2.04,6.5c-1.33,1.33 -3.49,2 -6.47,2l-10.63,0c-2.97,0 -5.14,-0.67 -6.5,-2c-1.34,-1.36 -2,-3.53 -2,-6.5l0,-13.6c0,-2.98 0.66,-5.13 2,-6.46c1.36,-1.36 3.53,-2.04 6.5,-2.04l10.63,0c2.98,0 5.14,0.68 6.47,2.04c1.36,1.33 2.04,3.48 2.04,6.46l0,13.6z" fill="#F1F1F1" id="Vector_5"/>
   <path d="m58.27,63.57l-7.65,0l0,-23.8l-8.93,0l0,-5.95l25.51,0l0,5.95l-8.93,0l0,23.8z" fill="#F1F1F1" id="Vector_6"/>
   <path d="m25.94,63.57l-7.65,0l0,-18.27l-10.21,18.27l-8.08,0l0,-29.75l7.65,0l0,18.28l10.21,-18.28l8.08,0l0,29.75z" fill="#F1F1F1" id="Vector_7"/>
   <path d="m183.53,18.06l0,-5.52l31.47,0l0,5.52l-31.47,0z" fill="#F1F1F1" id="Vector_8"/>
   <path d="m150.35,10.63l9.78,0c2.98,0 5.13,0.68 6.46,2.04c1.37,1.33 2.05,3.48 2.05,6.46l0,2.55c0,2.97 -0.68,5.14 -2.05,6.5c-1.33,1.33 -3.48,2 -6.46,2l-17.44,0l0,-29.75l7.66,0l0,10.2zm29.34,19.55l-7.65,0l0,-29.75l7.65,0l0,29.75zm-18.71,-11.05c0,-1.7 -0.85,-2.55 -2.55,-2.55l-8.08,0l0,7.65l8.08,0c1.7,0 2.55,-0.85 2.55,-2.55l0,-2.55z" fill="#F1F1F1" id="Vector_9"/>
   <path d="m139.29,29.75c-6.32,0.57 -11.57,0.85 -15.74,0.85c-2.77,0 -4.82,-0.65 -6.12,-1.95c-1.3,-1.31 -1.96,-3.35 -1.96,-6.12l0,-13.6c0,-2.98 0.67,-5.13 2,-6.46c1.36,-1.36 3.53,-2.04 6.51,-2.04l15.31,0l0,5.95l-13.61,0c-1.7,0 -2.55,0.85 -2.55,2.55l0,13.6c0,0.65 0.18,1.17 0.55,1.57c0.4,0.37 0.89,0.55 1.49,0.55c0.6,0 1.25,0 1.96,0c0.7,-0.03 1.44,-0.05 2.21,-0.08c0.76,-0.03 1.53,-0.06 2.29,-0.09c0.8,-0.03 1.8,-0.08 3.02,-0.17c1.25,-0.08 2.8,-0.18 4.64,-0.29l0,5.73z" fill="#F1F1F1" id="Vector_10"/>
   <path d="m112.92,29.75c-6.33,0.57 -11.57,0.85 -15.74,0.85c-2.78,0 -4.82,-0.65 -6.12,-1.95c-1.31,-1.31 -1.96,-3.35 -1.96,-6.12l0,-13.6c0,-2.98 0.67,-5.13 2,-6.46c1.36,-1.36 3.53,-2.04 6.51,-2.04l15.31,0l0,5.95l-13.61,0c-1.7,0 -2.55,0.85 -2.55,2.55l0,13.6c0,0.65 0.18,1.17 0.55,1.57c0.4,0.37 0.89,0.55 1.49,0.55c0.59,0 1.25,0 1.95,0c0.71,-0.03 1.45,-0.05 2.22,-0.08c0.76,-0.03 1.53,-0.06 2.29,-0.09c0.8,-0.03 1.8,-0.08 3.02,-0.17c1.25,-0.08 2.79,-0.18 4.64,-0.29l0,5.73z" fill="#F1F1F1" id="Vector_11"/>
   <path d="m78.03,8.5c0,-1.7 -0.85,-2.55 -2.56,-2.55l-7.23,0c-1.7,0 -2.55,0.85 -2.55,2.55l0,13.6c0,1.7 0.85,2.55 2.55,2.55l7.23,0c1.71,0 2.56,-0.85 2.56,-2.55l0,-13.6zm7.65,13.6c0,2.98 -0.68,5.15 -2.04,6.51c-1.33,1.33 -3.49,1.99 -6.46,1.99l-10.64,0c-2.97,0 -5.14,-0.66 -6.5,-1.99c-1.34,-1.36 -2,-3.53 -2,-6.51l0,-13.6c0,-2.97 0.66,-5.13 2,-6.46c1.36,-1.36 3.53,-2.04 6.5,-2.04l10.64,0c2.97,0 5.13,0.68 6.46,2.04c1.36,1.33 2.04,3.49 2.04,6.46l0,13.6z" fill="#F1F1F1" id="Vector_12"/>
   <path d="m28.7,0.43l17.86,0c2.97,0 5.13,0.68 6.46,2.04c1.36,1.33 2.04,3.48 2.04,6.46l0,4.25c0,2.97 -0.68,5.14 -2.04,6.5c-1.33,1.33 -3.49,2 -6.46,2l-10.21,0l0,8.5l-7.65,0l0,-29.75zm18.71,8.5c0,-1.7 -0.85,-2.55 -2.55,-2.55l-8.51,0l0,9.35l8.51,0c1.7,0 2.55,-0.85 2.55,-2.55l0,-4.25z" fill="#F1F1F1" id="Vector_13"/>
   <path d="m21.69,0c0.71,0 1.98,0.14 3.83,0.43l0,5.73l-1.71,0c-0.42,0 -0.8,0.14 -1.14,0.43c-0.34,0.25 -0.6,0.54 -0.77,0.85l-4.04,7.65l8.29,15.09l-8.08,0l-6.59,-12.12l-3.83,0l0,12.12l-7.65,0l0,-29.75l7.65,0l0,11.68l3.83,0l4.25,-8.07c0.63,-1.19 1.39,-2.16 2.3,-2.89c0.94,-0.77 2.16,-1.15 3.66,-1.15z" fill="#F1F1F1" id="Vector_14"/>
   <line fill="none" id="svg_1" x1="81.4" x2="114.4" y1="188.09" y2="67.09"/>
   <line fill="none" id="svg_2" opacity="0.5" x1="-5.6" x2="-6.6" y1="-6.91" y2="-4.91"/>
   <path d="m-2.6,-20.91c13,12.67 14.08,13.85 15.09,15.03c0.97,1.14 1.89,2.28 2.75,3.41c0.84,1.1 1.63,2.19 2.39,3.27c1.46,2.11 2.14,3.16 2.81,4.2c0.65,1.02 1.29,2.04 1.89,3.04c0.6,0.99 1.17,1.98 1.71,2.96c1.06,1.91 1.54,2.86 2,3.8c0.46,0.92 0.88,1.82 1.29,2.71c0.39,0.86 0.77,1.7 1.11,2.53c0.65,1.55 0.93,2.29 1.2,3c0.26,0.69 0.49,1.36 0.71,2.01c0.21,0.64 0.41,1.28 0.57,1.92c0.34,1.28 0.47,1.94 0.6,2.6c0.13,0.67 0.25,1.34 0.36,2.02c0.11,0.67 0.22,1.35 0.32,2.02c0.2,1.32 0.3,1.96 0.4,2.6c0.1,0.62 0.19,1.23 0.28,1.83c0.09,0.58 0.17,1.14 0.24,1.69c0.13,1.04 0.17,1.53 0.2,2c0.03,0.46 0.05,0.91 0.06,1.35c0.01,0.44 0.02,0.87 0.02,1.3c0,0.88 0,1.34 0,1.8c0,0.48 0.01,0.96 0.02,1.45c0.01,0.51 0.03,1.02 0.06,1.55c0.07,1.08 0.13,1.64 0.2,2.2c0.07,0.57 0.23,1.74 0.33,2.33c0.09,0.59 0.39,2.39 0.49,2.99c0.1,0.6 0.3,1.77 0.4,2.34c0.2,1.09 0.28,1.61 0.6,3c0.19,0.81 0.41,1.57 0.66,2.32c0.4,1.25 0.56,1.71 0.9,2.71c0.18,0.54 0.58,1.66 0.8,2.24c0.22,0.59 0.69,1.79 1.23,2.99c0.27,0.61 0.57,1.22 0.89,1.84c0.33,0.63 0.68,1.28 1.07,1.93c0.82,1.37 1.3,2.08 1.8,2.8c0.51,0.74 1.06,1.49 1.63,2.23c0.58,0.75 1.18,1.5 1.81,2.23c1.26,1.45 1.92,2.13 2.6,2.8c0.67,0.66 1.36,1.3 2.07,1.91c0.71,0.61 1.45,1.21 2.21,1.77c1.54,1.15 2.37,1.67 3.2,2.2c0.84,0.53 1.69,1.04 2.55,1.55c0.86,0.5 1.73,0.98 2.6,1.45c1.71,0.93 2.56,1.37 3.4,1.8c0.83,0.43 1.66,0.84 2.5,1.23c0.84,0.39 1.68,0.76 2.55,1.09c1.75,0.67 2.67,0.94 3.6,1.2c0.94,0.26 1.91,0.5 2.89,0.71c0.99,0.21 2,0.41 3.03,0.57c2.08,0.34 3.13,0.47 4.2,0.6c1.07,0.13 2.14,0.24 3.22,0.34c1.07,0.1 2.15,0.19 3.22,0.26c2.12,0.13 3.16,0.17 4.2,0.2c1.03,0.03 2.06,0.03 3.08,0.01c1.03,-0.03 2.05,-0.07 3.08,-0.17c2.09,-0.2 3.14,-0.39 4.2,-0.6c1.08,-0.21 2.16,-0.47 3.26,-0.77c1.11,-0.3 2.23,-0.64 3.34,-1.03c2.29,-0.8 3.44,-1.29 4.59,-1.8c1.17,-0.51 2.33,-1.05 3.48,-1.63c1.15,-0.57 2.28,-1.17 3.39,-1.81c2.17,-1.25 3.2,-1.92 4.19,-2.59c0.98,-0.66 1.93,-1.33 2.83,-2.02c0.89,-0.67 1.75,-1.34 2.56,-2.02c1.57,-1.3 2.3,-1.96 3,-2.6c0.68,-0.63 1.34,-1.26 1.95,-1.9c0.61,-0.63 1.19,-1.28 1.73,-1.95c1.07,-1.34 1.54,-2.07 2,-2.8c0.46,-0.74 0.9,-1.5 1.31,-2.27c0.41,-0.78 0.8,-1.56 1.17,-2.36c0.74,-1.59 1.07,-2.4 1.4,-3.19c0.33,-0.79 0.64,-1.58 0.93,-2.36c0.28,-0.77 0.55,-1.52 0.79,-2.27c0.46,-1.43 0.64,-2.13 0.8,-2.8c0.16,-0.65 0.3,-1.3 0.41,-1.93c0.11,-0.62 0.2,-1.23 0.27,-1.84c0.14,-1.2 0.17,-1.8 0.2,-2.4c0.03,-0.59 0.05,-1.17 0.06,-1.74c0.01,-0.55 0.02,-1.09 0.02,-1.61c0,-0.96 0,-1.39 0,-1.8c0,-0.38 -0.01,-0.74 -0.02,-1.07c-0.01,-0.32 -0.03,-0.61 -0.06,-0.89c-0.07,-0.52 -0.13,-0.77 -0.2,-1c-0.07,-0.23 -0.15,-0.44 -0.24,-0.65c-0.09,-0.2 -0.18,-0.38 -0.28,-0.55c-0.19,-0.32 -0.3,-0.47 -0.4,-0.6c-0.1,-0.13 -0.2,-0.25 -0.3,-0.36c-0.1,-0.11 -0.2,-0.22 -0.3,-0.32c-0.2,-0.2 -0.3,-0.3 -0.4,-0.4c-0.1,-0.1 -0.2,-0.19 -0.3,-0.28c-0.1,-0.09 -0.15,-0.33 -1.1,-0.51c-0.88,-0.17 -2.03,-0.2 -2.36,0.45c-0.4,0.78 -0.04,1.84 -0.04,2.44c0,0.68 0,1.85 0,2.72c0,0.93 0,1.89 0,2.39c0,1.5 -0.01,2 0.02,3.04c0.02,0.54 0.08,1.69 0.15,2.3c0.14,1.33 0.27,2.05 0.4,2.8c0.14,0.79 0.31,1.6 0.51,2.42c0.2,0.85 0.43,1.7 0.69,2.56c0.53,1.72 0.86,2.56 1.2,3.4c0.34,0.84 0.71,1.66 1.11,2.48c0.4,0.83 0.83,1.66 1.29,2.48c0.94,1.69 1.46,2.54 2,3.4c0.55,0.88 1.12,1.76 1.73,2.65c0.62,0.91 1.27,1.83 1.95,2.75c1.42,1.9 2.2,2.84 3,3.8c0.82,0.98 1.67,1.96 2.57,2.94c0.91,1 1.85,1.99 2.83,2.98c2.02,2.02 3.1,3.01 4.2,4c1.12,1 2.26,2 3.45,2.98c1.19,0.99 2.41,1.98 3.67,2.94c2.54,1.94 3.86,2.87 5.19,3.8c1.33,0.93 2.69,1.82 4.05,2.71l1.36,0.86l1.37,0.84l1.37,0.82" fill="none" id="svg_3"/>
   <polyline fill="none" id="svg_4" opacity="0.5" points="59.4034 22.0881 57.7034 22.0881 56.7606 22.1452 56.3194 22.8894 55.9034 23.5881 55.4606 24.3881" stroke-linecap="round"/>
  </g>
 </g>
</svg>